<svg id="Layer_3" data-name="Layer 3" xmlns="http://www.w3.org/2000/svg" viewBox="0 0 1611.43 539.91"><circle cx="805.72" cy="311.81" r="161.71"/><path d="M720.85,891.71a213.06,213.06,0,0,1,64.33-152.78l-130-132.61a88.07,88.07,0,0,0-62.9-26.42H242.2A113.34,113.34,0,0,0,128.86,693.24V923.68c0,108.32,87.81,196.12,196.13,196.12H728a72.53,72.53,0,0,0,58.17-29.2l20.54-27.6A213.42,213.42,0,0,1,720.85,891.71Z" transform="translate(-128.86 -579.9)"/><path d="M1627,579.9H1276.87A88.1,88.1,0,0,0,1214,606.32L1084,738.93A213.67,213.67,0,0,1,1062.41,1063l20.55,27.6a72.5,72.5,0,0,0,58.16,29.2h403c108.32,0,196.13-87.8,196.13-196.12V693.24A113.33,113.33,0,0,0,1627,579.9Z" transform="translate(-128.86 -579.9)"/></svg>