<svg xmlns="http://www.w3.org/2000/svg" width="96" height="112" preserveAspectRatio="xMidYMid meet" version="1.0" viewBox="0 0 96 112"><g fill="currentColor"><path d="M17.6 107.4 c-1.8 -2.9 -3.1 -6.5 -3.4 -9.5 -0.5 -5.4 -2.6 -7.5 -6.4 -6.3 -2.5 0.8 -3.8 -0.9 -3.8 -5.1 0 -2.3 1.3 -4.4 5.1 -8.5 4.5 -4.9 5 -6 5 -10 0 -8 8.2 -29.4 13.2 -34.1 1.4 -1.3 3.6 -4.3 4.9 -6.6 4.7 -8.4 9 -12.5 17.2 -16.4 4.4 -2.1 9.4 -5.2 11.3 -6.9 3.1 -2.9 3.7 -3 8.6 -2.4 7.2 1 10.8 3.2 13.2 8.2 1.1 2.3 2.6 4.2 3.5 4.2 1.8 0 7 4.6 7.1 6.3 0 0.7 0.3 3.7 0.6 6.7 0.3 3 0.5 9.6 0.6 14.5 0.1 8.8 0 9.2 -4.6 18.7 -2.6 5.4 -5.2 10 -5.7 10.3 -0.5 0.3 -4 4.8 -7.9 10 -3.9 5.2 -8.1 10 -9.4 10.7 -4.2 2.3 -12.8 5.6 -17.9 6.8 l-5 1.3 0.6 6.3 0.7 6.4 -12.3 0 -12.3 0 -2.9 -4.6z"/></g></svg>