<svg xmlns="http://www.w3.org/2000/svg" xmlns:xlink="http://www.w3.org/1999/xlink" id="Layer_1" x="0" y="0" version="1.1" viewBox="0 0 537.12 537.12" xml:space="preserve" style="enable-background:new 0 0 537.12 537.12"><style type="text/css">.st0{fill-rule:evenodd;clip-rule:evenodd;fill:#4fc2bc}</style><path d="M213.36,278.64c17.51,19.19,128.3,172.64,143.28,192.24c12.68,6.4,42-6,42-6s53.38-175.49,52.56-179.52	c-0.7-7.93-34.48-19.25-43.2-17.04c-5.42,12.18-43.86,159.44-51.6,157.92c-7.8-1.53-102.68-141.59-107.76-148.56	C244.13,275.87,216.8,275.77,213.36,278.64z" class="st0"/><path d="M30,120.96c35.63-2.78,331.11-34.94,403.68-36.72c8.13,1.13,31.97,5.51,33.36,15.12	c-6.09,5.62-240.25,101.91-273.6,126.48c0.89,15.31,27.06,199.99,37.2,246.72c-4.67,2.77-43.39-10.03-49.44-15.12	c-6.98-16.66-16.58-218.66-17.04-238.56c0.93-9.26,196.16-103.49,217.44-111.36c-34.24,3.24-293.15,36.56-309.84,36.96	C54.47,139.03,25.89,125.32,30,120.96z" class="st0"/></svg>